<svg width="18" height="18" viewBox="0 0 18 18" fill="none" xmlns="http://www.w3.org/2000/svg">
<path d="M15.4584 5.09169H13.8917C13.7334 2.52503 11.6034 0.486694 9.00008 0.486694C6.39675 0.486694 4.26675 2.52669 4.10841 5.09169H2.54175C1.50841 5.09169 0.666748 5.93086 0.666748 6.96669V15.4917C0.666748 16.525 1.50841 17.3667 2.54175 17.3667H15.4584C16.4917 17.3667 17.3334 16.525 17.3334 15.4917V6.96669C17.3334 5.93169 16.4917 5.09169 15.4584 5.09169ZM9.62508 12.0725V13.2359C9.62508 13.5809 9.34508 13.8609 9.00008 13.8609C8.65508 13.8609 8.37508 13.5809 8.37508 13.2359V12.0725C7.73842 11.8225 7.28591 11.2059 7.28591 10.4809C7.28591 9.53336 8.05258 8.76586 9.00008 8.76586C9.94675 8.76586 10.7142 9.53253 10.7142 10.4792C10.7142 11.2042 10.2617 11.8209 9.62508 12.0709V12.0725ZM5.37341 5.09169C5.53175 3.21669 7.08758 1.73669 9.00008 1.73669C10.9126 1.73669 12.4692 3.21753 12.6267 5.08919H5.37341V5.09169Z" fill="#D9D9D9"/>
</svg>
