<svg width="20" height="15" viewBox="0 0 20 15" fill="none" xmlns="http://www.w3.org/2000/svg">
<path d="M19.8083 10.0583C19.5649 9.81416 19.1691 9.81416 18.9249 10.0583L17.0749 11.9083V3.375C17.0749 1.65166 15.6724 0.249997 13.9499 0.249997H9.07494C8.72994 0.249997 8.44994 0.529997 8.44994 0.874997C8.44994 1.22 8.72994 1.5 9.07494 1.5H13.9499C14.9833 1.5 15.8249 2.34166 15.8249 3.375V11.9083L13.9749 10.0583C13.7308 9.81416 13.3349 9.81416 13.0916 10.0583C12.8483 10.3025 12.8466 10.6983 13.0916 10.9417L16.0083 13.8583C16.1291 13.9808 16.2891 14.0417 16.4499 14.0417C16.6108 14.0417 16.7691 13.9817 16.8916 13.8583L19.8083 10.9417C20.0533 10.6983 20.0533 10.3025 19.8083 10.0583ZM10.9249 12.7917H6.04994C5.0166 12.7917 4.17494 11.95 4.17494 10.9167V2.38333L6.02494 4.23333C6.14827 4.35583 6.30827 4.41666 6.46827 4.41666C6.62827 4.41666 6.78827 4.35583 6.90994 4.23333C7.1541 3.98916 7.1541 3.59333 6.90994 3.35L3.99327 0.43333C3.7491 0.18833 3.35327 0.18833 3.10994 0.43333L0.193271 3.35C-0.0517285 3.59333 -0.0517285 3.98916 0.193271 4.23333C0.438271 4.4775 0.832438 4.4775 1.0766 4.23333L2.9266 2.38333V10.9167C2.9266 12.64 4.3291 14.0417 6.0516 14.0417H10.9266C11.2716 14.0417 11.5516 13.7617 11.5516 13.4167C11.5516 13.0717 11.2708 12.7917 10.9266 12.7917H10.9249Z" fill="#6E767D"/>
</svg>
